HIERARCHY
ROOT Hips
{
	OFFSET 0.000000 0.000000 0.000000
	CHANNELS 6 Xposition Yposition Zposition Xrotation Yrotation Zrotation
	JOINT LeftUpLeg_virtual
	{
		OFFSET 0.000000 0.000000 0.000000
		CHANNELS 3 Xrotation Yrotation Zrotation
		JOINT LeftUpLeg
		{
			OFFSET 13.026900 -6.336304 -1.092800
			CHANNELS 3 Xrotation Yrotation Zrotation
			JOINT LeftLeg
			{
				OFFSET 0.524474 -46.096886 9.782700
				CHANNELS 3 Xrotation Yrotation Zrotation
				JOINT LeftFoot
				{
					OFFSET -0.524474 -53.427422 -12.948200
					CHANNELS 3 Xrotation Yrotation Zrotation
					JOINT LeftToeBase
					{
						OFFSET 0.192200 -14.009700 16.364100
						CHANNELS 3 Xrotation Yrotation Zrotation
						JOINT LeftToe_End
						{
							OFFSET -1.784700 -0.561700 9.474800
							CHANNELS 3 Xrotation Yrotation Zrotation
							End Site
							{
								OFFSET 0 0 0
							}
						}
					}
				}
			}
		}
	}
	JOINT RightUpLeg_virtual
	{
		OFFSET 0.000000 0.000000 0.000000
		CHANNELS 3 Xrotation Yrotation Zrotation
		JOINT RightUpLeg
		{
			OFFSET -12.883000 -6.336304 -1.092800
			CHANNELS 3 Xrotation Yrotation Zrotation
			JOINT RightLeg
			{
				OFFSET -0.524587 -46.096825 9.782800
				CHANNELS 3 Xrotation Yrotation Zrotation
				JOINT RightFoot
				{
					OFFSET 0.524587 -53.427383 -12.948300
					CHANNELS 3 Xrotation Yrotation Zrotation
					JOINT RightToeBase
					{
						OFFSET -0.192200 -14.009700 16.364100
						CHANNELS 3 Xrotation Yrotation Zrotation
						JOINT RightToe_End
						{
							OFFSET 1.784700 -0.561700 9.474800
							CHANNELS 3 Xrotation Yrotation Zrotation
							End Site
							{
								OFFSET 0 0 0
							}
						}
					}
				}
			}
		}
	}
	JOINT Spine_virtual
	{
		OFFSET 0.000000 0.000000 0.000000
		CHANNELS 3 Xrotation Yrotation Zrotation
		JOINT Spine
		{
			OFFSET 0.072000 7.257294 -0.789700
			CHANNELS 3 Xrotation Yrotation Zrotation
			JOINT Spine1
			{
				OFFSET 0.000000 12.508769 -0.658067
				CHANNELS 3 Xrotation Yrotation Zrotation
				JOINT Spine1_split
				{
					OFFSET 0.000000 12.508769 -0.658067
					CHANNELS 3 Xrotation Yrotation Zrotation
					JOINT Spine2
					{
						OFFSET 0.000000 12.508769 -0.658067
						CHANNELS 3 Xrotation Yrotation Zrotation
						JOINT Neck_virtual
						{
							OFFSET 0.000000 0.000000 0.000000
							CHANNELS 3 Xrotation Yrotation Zrotation
							JOINT Neck
							{
								OFFSET 0.000000 14.033295 7.520400
								CHANNELS 3 Xrotation Yrotation Zrotation
								JOINT Head
								{
									OFFSET 0.000000 8.198502 5.703100
									CHANNELS 3 Xrotation Yrotation Zrotation
									JOINT HeadTop_End
									{
										OFFSET 0.000000 17.760803 13.332701
										CHANNELS 3 Xrotation Yrotation Zrotation
										End Site
										{
											OFFSET 0 0 0
										}
									}
								}
							}
						}
						JOINT LeftShoulder_virtual
						{
							OFFSET 0.000000 0.000000 0.000000
							CHANNELS 3 Xrotation Yrotation Zrotation
							JOINT LeftShoulder
							{
								OFFSET 6.292450 5.785301 -0.669000
								CHANNELS 3 Xrotation Yrotation Zrotation
								JOINT LeftShoulder_split
								{
									OFFSET 6.292450 5.785301 -0.669000
									CHANNELS 3 Xrotation Yrotation Zrotation
									JOINT LeftArm
									{
										OFFSET 13.907140 -6.093903 1.965100
										CHANNELS 3 Xrotation Yrotation Zrotation
										JOINT LeftForeArm
										{
											OFFSET 34.140198 0.000000 0.000000
											CHANNELS 3 Xrotation Yrotation Zrotation
											JOINT LeftHand
											{
												OFFSET 40.960209 0.000000 0.000000
												CHANNELS 3 Xrotation Yrotation Zrotation
												End Site
												{
													OFFSET 0 0 0
												}
											}
										}
									}
								}
							}
						}
						JOINT RightShoulder_virtual
						{
							OFFSET 0.000000 0.000000 0.000000
							CHANNELS 3 Xrotation Yrotation Zrotation
							JOINT RightShoulder
							{
								OFFSET -6.292450 5.785301 -0.669000
								CHANNELS 3 Xrotation Yrotation Zrotation
								JOINT RightShoulder_split
								{
									OFFSET -6.292450 5.785301 -0.669000
									CHANNELS 3 Xrotation Yrotation Zrotation
									JOINT RightArm
									{
										OFFSET -13.907140 -6.093903 1.965100
										CHANNELS 3 Xrotation Yrotation Zrotation
										JOINT RightForeArm
										{
											OFFSET -34.140198 0.000000 0.000000
											CHANNELS 3 Xrotation Yrotation Zrotation
											JOINT RightHand
											{
												OFFSET -40.960209 0.000000 0.000000
												CHANNELS 3 Xrotation Yrotation Zrotation
												End Site
												{
													OFFSET 0 0 0
												}
											}
										}
									}
								}
							}
						}
					}
				}
			}
		}
	}
}
MOTION
Frames: 11
Frame Time: 0.03333333
6.356935 57.235447 -1.499855 0.000000 0.000000 0.000000 1.182298 -37.305209 7.019997 -74.706485 -15.506988 47.235051 69.491601 10.675793 -5.813369 34.262015 0.864013 -6.012806 -3.537339 -0.000443 -1.744674 0.000000 0.000000 0.000000 -3.715886 -31.946161 6.843700 -26.394332 4.658738 -19.733491 108.140807 2.295500 -1.784041 37.546725 5.403362 9.299964 42.367271 -0.325192 -5.064466 0.000000 0.000000 0.000000 -1.518901 -38.116929 7.102865 3.496811 -5.829220 -4.589250 2.178299 -4.139306 -2.315696 0.602278 0.569371 -0.007978 0.000000 0.000000 0.000000 1.433875 -4.450416 -2.121818 0.408185 1.052553 2.529116 1.915331 14.595706 5.698471 0.000000 0.000000 0.000000 1.383621 -4.150695 -2.332335 1.533964 0.335923 -2.034450 -4.532115 1.432148 -0.754489 -0.919295 -15.105247 -49.140021 175.402618 -86.708835 176.213102 0.000000 0.000000 0.000000 2.829922 -4.243237 -2.370570 5.718711 18.058733 3.202860 -1.605465 5.112087 -0.732959 -31.684148 -14.171552 46.273292 179.192854 82.474179 -179.616845 0.000000 0.000000 0.000000 
6.272270 57.196335 -1.491150 0.000000 0.000000 0.000000 1.282855 -37.309184 7.101830 -74.557484 -15.421205 47.445233 69.435211 10.749937 -6.030789 34.245882 0.897007 -5.893441 -3.665008 0.006594 -1.769451 0.000000 0.000000 0.000000 -3.624830 -31.984393 6.923248 -26.601567 4.647232 -19.710801 108.170116 2.288203 -1.769561 37.606718 5.350300 9.191905 42.730131 -0.320688 -4.921000 0.000000 0.000000 0.000000 -1.401525 -38.063948 7.154383 3.446347 -5.737470 -4.821644 2.218643 -4.070057 -2.495914 0.610045 0.555772 0.004255 0.000000 0.000000 0.000000 1.448345 -4.399553 -2.271729 0.276745 0.905833 3.003387 1.798427 14.674293 6.015280 0.000000 0.000000 0.000000 1.385252 -4.071363 -2.497792 1.502473 0.542258 -1.297663 -4.675648 1.289429 -0.920282 -0.857648 -15.174778 -49.464442 177.412142 -86.725289 178.291064 0.000000 0.000000 0.000000 2.821441 -4.180804 -2.565508 5.681432 18.197342 3.729118 -1.696784 5.168293 -0.668774 -30.586779 -13.030456 43.858602 179.541317 78.419738 -179.922332 0.000000 0.000000 0.000000 
6.170593 57.163410 -1.472816 0.000000 0.000000 0.000000 1.369808 -37.299438 7.155985 -74.438209 -15.338505 47.678457 69.395357 10.825643 -6.240170 34.228824 0.846325 -5.801996 -3.755638 0.017238 -1.790883 0.000000 0.000000 0.000000 -3.537787 -31.983133 6.969330 -26.686256 4.608160 -19.654052 108.102415 2.300840 -1.785195 37.659802 5.344891 9.146334 43.028566 -0.313192 -4.781411 0.000000 0.000000 0.000000 -1.309250 -37.958302 7.177893 3.379590 -5.630764 -5.046767 2.264299 -4.008627 -2.667200 0.606383 0.525778 0.017198 0.000000 0.000000 0.000000 1.477994 -4.345358 -2.414149 0.102919 0.732753 3.503522 1.707429 14.712214 6.294961 0.000000 0.000000 0.000000 1.386062 -3.991468 -2.655338 1.451773 0.811032 -0.718095 -4.700910 1.122928 -1.016496 -0.820803 -15.315050 -49.643338 178.996678 -86.694942 179.943834 0.000000 0.000000 0.000000 2.820888 -4.117122 -2.750901 5.623617 18.313726 4.372442 -1.788937 5.169662 -0.563968 -29.832371 -12.137776 41.746994 179.715937 74.731108 179.959106 0.000000 0.000000 0.000000 
6.049279 57.147858 -1.456764 0.000000 0.000000 0.000000 1.428851 -37.272206 7.159863 -74.341398 -15.256968 47.929924 69.359444 10.923079 -6.441496 34.198692 0.744798 -5.700963 -3.814464 0.027839 -1.808361 0.000000 0.000000 0.000000 -3.472026 -31.941813 6.960773 -26.603874 4.516965 -19.551164 107.934023 2.313053 -1.816753 37.655670 5.368332 9.152106 43.202521 -0.304771 -4.665171 0.000000 0.000000 0.000000 -1.246780 -37.811142 7.165104 3.302871 -5.512994 -5.257116 2.320893 -3.948785 -2.825328 0.601423 0.498794 0.035369 0.000000 0.000000 0.000000 1.527936 -4.287380 -2.545849 -0.098148 0.548690 4.029830 1.685962 14.756282 6.491148 0.000000 0.000000 0.000000 1.406398 -3.911632 -2.796894 1.387043 1.107432 -0.249697 -4.610050 0.930767 -1.003220 -0.788658 -15.518178 -49.714362 -179.694682 -86.615459 -178.680085 0.000000 0.000000 0.000000 2.849945 -4.051573 -2.920985 5.539887 18.444607 5.154352 -1.843442 5.085104 -0.456708 -29.103948 -11.253078 39.848710 179.846722 71.517272 179.896418 0.000000 0.000000 0.000000 
5.913961 57.157898 -1.447201 0.000000 0.000000 0.000000 1.465183 -37.225999 7.115049 -74.262967 -15.178306 48.178887 69.330867 11.043467 -6.629178 34.150434 0.613511 -5.580870 -3.855355 0.037456 -1.833305 0.000000 0.000000 0.000000 -3.428632 -31.858034 6.899670 -26.361807 4.347718 -19.404557 107.670105 2.301574 -1.843561 37.557711 5.402482 9.224249 43.188369 -0.299313 -4.590617 0.000000 0.000000 0.000000 -1.209567 -37.633758 7.123995 3.223006 -5.389026 -5.450405 2.388931 -3.886131 -2.970844 0.577310 0.459329 0.033491 0.000000 0.000000 0.000000 1.595394 -4.229045 -2.672293 -0.317580 0.367571 4.568098 1.760533 14.845529 6.565181 0.000000 0.000000 0.000000 1.455709 -3.835682 -2.920852 1.314643 1.394527 0.156564 -4.430034 0.741492 -0.882188 -0.785634 -15.761599 -49.746757 -178.492377 -86.479361 -177.405913 0.000000 0.000000 0.000000 2.917294 -3.990838 -3.076583 5.441085 18.591309 6.000549 -1.873399 4.907860 -0.347340 -28.129077 -10.167967 38.057268 179.963409 68.776262 179.849372 0.000000 0.000000 0.000000 
5.764719 57.190868 -1.446194 0.000000 0.000000 0.000000 1.484638 -37.135759 7.035342 -74.205566 -15.106831 48.392051 69.301702 11.168460 -6.789439 34.097168 0.450538 -5.461865 -3.939609 0.045571 -1.859915 0.000000 0.000000 0.000000 -3.395573 -31.740692 6.810248 -26.003854 4.109569 -19.234236 107.336286 2.270401 -1.866055 37.364130 5.458002 9.392043 43.009039 -0.298453 -4.563506 0.000000 0.000000 0.000000 -1.183949 -37.430304 7.074660 3.145364 -5.266811 -5.630504 2.459738 -3.821046 -3.107947 0.576358 0.430244 0.036762 0.000000 0.000000 0.000000 1.673268 -4.173188 -2.795586 -0.544809 0.214491 5.090682 1.934715 15.021637 6.497827 0.000000 0.000000 0.000000 1.525159 -3.765851 -3.032248 1.239922 1.654068 0.534957 -4.234430 0.599766 -0.724226 -0.819610 -16.023844 -49.806733 -177.283461 -86.312090 -176.123231 0.000000 0.000000 0.000000 3.010717 -3.939654 -3.223868 5.337146 18.736797 6.840455 -1.894489 4.701615 -0.259505 -26.730311 -8.785852 36.321402 -179.901691 66.408256 179.769090 0.000000 0.000000 0.000000 
5.603546 57.245266 -1.443726 0.000000 0.000000 0.000000 1.496084 -36.980475 6.940430 -74.167959 -15.037179 48.552147 69.258972 11.285668 -6.919106 34.060668 0.259718 -5.349542 -4.086463 0.049990 -1.886607 0.000000 0.000000 0.000000 -3.368600 -31.596305 6.717859 -25.602061 3.828799 -19.050154 106.971540 2.229610 -1.888199 37.119968 5.548188 9.667684 42.726334 -0.298040 -4.572452 0.000000 0.000000 0.000000 -1.160379 -37.199252 7.032002 3.071080 -5.152962 -5.806890 2.519258 -3.754739 -3.241419 0.569440 0.392467 0.027917 0.000000 0.000000 0.000000 1.759713 -4.121021 -2.917298 -0.775566 0.108656 5.562798 2.173222 15.289816 6.292778 0.000000 0.000000 0.000000 1.603992 -3.703127 -3.135025 1.168107 1.881020 0.898839 -4.081577 0.529813 -0.606347 -0.880500 -16.297928 -49.941783 -176.137301 -86.136287 -174.910216 0.000000 0.000000 0.000000 3.097868 -3.903537 -3.365828 5.242174 18.859300 7.581848 -1.885490 4.536864 -0.215198 -24.893483 -7.186007 34.726669 -179.771440 64.239705 179.663017 0.000000 0.000000 0.000000 
5.427577 57.310566 -1.431610 0.000000 0.000000 0.000000 1.517777 -36.749140 6.858054 -74.168915 -14.968291 48.657472 69.192371 11.376299 -7.018564 34.074772 0.045189 -5.266410 -4.278276 0.052375 -1.910294 0.000000 0.000000 0.000000 -3.320516 -31.406835 6.651179 -25.205633 3.544733 -18.855912 106.585942 2.198110 -1.919709 36.879436 5.682469 10.050609 42.390729 -0.294443 -4.599160 0.000000 0.000000 0.000000 -1.120320 -36.926844 7.014609 2.996565 -5.050457 -5.985613 2.554290 -3.690320 -3.371701 0.567160 0.381614 0.006459 0.000000 0.000000 0.000000 1.838499 -4.070283 -3.034645 -1.009778 0.052083 5.949897 2.435498 15.621831 5.977286 0.000000 0.000000 0.000000 1.666812 -3.643290 -3.233202 1.103213 2.067793 1.238933 -3.973758 0.525846 -0.568792 -0.914606 -16.605148 -50.144681 -175.143822 -85.993810 -173.864856 0.000000 0.000000 0.000000 3.151857 -3.877900 -3.501092 5.171279 18.934857 8.153921 -1.847229 4.414268 -0.181112 -22.719738 -5.500111 33.431228 -179.676172 62.184146 179.558706 0.000000 0.000000 0.000000 
5.239264 57.378403 -1.388508 0.000000 0.000000 0.000000 1.561353 -36.461517 6.802765 -74.209773 -14.898062 48.712284 69.085663 11.445046 -7.096773 34.148309 -0.161006 -5.204402 -4.473546 0.052797 -1.925311 0.000000 0.000000 0.000000 -3.237540 -31.176692 6.617541 -24.826978 3.285334 -18.640853 106.179478 2.180704 -1.962961 36.689888 5.856474 10.517324 42.031225 -0.282670 -4.627207 0.000000 0.000000 0.000000 -1.059775 -36.618044 7.025374 2.919472 -4.954182 -6.167722 2.560272 -3.622110 -3.492438 0.587842 0.387092 -0.001453 0.000000 0.000000 0.000000 1.896115 -4.011329 -3.136679 -1.238045 0.044087 6.219895 2.677421 15.974645 5.592888 0.000000 0.000000 0.000000 1.705793 -3.574491 -3.323897 1.049948 2.216648 1.539373 -3.884844 0.566302 -0.594597 -0.848183 -16.980477 -50.372259 -174.356821 -85.956490 -173.053921 0.000000 0.000000 0.000000 3.155829 -3.844275 -3.623083 5.123455 18.977051 8.538178 -1.743885 4.352693 -0.127219 -20.378727 -3.882909 32.543423 -179.642650 60.255888 179.483971 0.000000 0.000000 0.000000 
5.031960 57.441753 -1.325912 0.000000 0.000000 0.000000 1.627742 -36.150077 6.777139 -74.282877 -14.817288 48.741285 68.938069 11.506335 -7.168232 34.257227 -0.318086 -5.147310 -4.602540 0.053086 -1.936496 0.000000 0.000000 0.000000 -3.129487 -30.908682 6.610463 -24.465393 3.042477 -18.390470 105.756341 2.174033 -2.013470 36.578392 6.064904 11.033774 41.626222 -0.262118 -4.650582 0.000000 0.000000 0.000000 -0.983545 -36.283044 7.057611 2.838104 -4.851363 -6.349629 2.539846 -3.539331 -3.595452 0.610253 0.416340 -0.005009 0.000000 0.000000 0.000000 1.926080 -3.930344 -3.217392 -1.445983 0.064076 6.353453 2.867114 16.285164 5.187340 0.000000 0.000000 0.000000 1.714743 -3.483796 -3.399877 1.011787 2.318327 1.776804 -3.803264 0.565314 -0.624620 -0.624647 -17.448391 -50.544397 -173.807291 -86.065124 -172.513161 0.000000 0.000000 0.000000 3.110807 -3.782381 -3.720483 5.098683 19.004646 8.733868 -1.590804 4.287927 -0.055124 -18.083648 -2.399902 32.126102 -179.687538 58.544106 179.466758 0.000000 0.000000 0.000000 
4.820547 57.496914 -1.264233 0.000000 0.000000 0.000000 1.709698 -35.837798 6.774228 -74.390288 -14.728700 48.749929 68.757390 11.560397 -7.239131 34.385221 -0.416525 -5.100264 -4.659169 0.054880 -1.937444 0.000000 0.000000 0.000000 -3.021257 -30.626449 6.612614 -24.123981 2.803625 -18.110617 105.324338 2.184480 -2.075999 36.545624 6.328787 11.588477 41.180242 -0.236152 -4.670691 0.000000 0.000000 0.000000 -0.890654 -35.940223 7.107327 2.753596 -4.722287 -6.519864 2.503116 -3.429402 -3.672179 0.653138 0.467114 0.000130 0.000000 0.000000 0.000000 1.926428 -3.815471 -3.269611 -1.615661 0.097877 6.346295 3.004224 16.515828 4.805155 0.000000 0.000000 0.000000 1.696082 -3.358712 -3.451951 0.989955 2.366935 1.937815 -3.708386 0.503557 -0.576763 -0.291866 -17.980765 -50.618590 -173.437587 -86.302172 -172.179274 0.000000 0.000000 0.000000 3.038511 -3.677103 -3.784613 5.088822 19.037272 8.768923 -1.468334 4.174898 0.053157 -15.934036 -1.041964 32.055939 -179.796315 57.176193 179.500144 0.000000 0.000000 0.000000 
